# xmcd
#
# Track frame offsets:
#	150
#	24050
#	45442
#	66181
#	88628
#	106968
#	134145
#	152714
#	185691
#	204241
#
# Disc length: 2955 seconds
#
# Revision: 0
# Processed by: cddbd v1.5.1PL0 Copyright (c) Steve Scherf et al.
# Submitted via: dBpowerAMP V4.0
#
DISCID=7f0b890a
DTITLE=BB King - Blues Summit
DYEAR=1993
DGENRE=Blues
TTITLE0=Playin' with my friends
TTITLE1=Since I met you baby
TTITLE2=I pity the fool
TTITLE3=You shook me
TTITLE4=Something you got
TTITLE5=There's something on your mind
TTITLE6=Little by little
TTITLE7=Call it stormy monday
TTITLE8=You're the boss
TTITLE9=We're gonna make it
EXTD=
EXTT0=
EXTT1=
EXTT2=
EXTT3=
EXTT4=
EXTT5=
EXTT6=
EXTT7=
EXTT8=
EXTT9=
PLAYORDER=
